<svg
  width="30"
  height="30"
  viewBox="0 0 30 30"
  fill="none"
  xmlns="http://www.w3.org/2000/svg"
>
  <rect
    x="0.5"
    y="0.5"
    width="29"
    height="29"
    rx="14.5"
    fill="url(#paint0_linear_2691_43662)"
  />
  <rect x="0.5" y="0.5" width="29" height="29" rx="14.5" stroke="#EBF5FF" />
  <path
    d="M5.50024 14.6602C11.8182 16.0886 12.2861 22.4639 12.2861 22.4639C12.2861 22.4639 12.754 16.0886 19.0719 14.6602C12.754 13.2317 12.2861 6.85645 12.2861 6.85645C12.2861 6.85645 11.8182 13.2317 5.50024 14.6602Z"
    fill="white"
  />
  <path
    d="M17.0356 19.072C20.5103 19.8184 20.7679 23.1435 20.7679 23.1435C20.7679 23.1435 21.0254 19.8184 24.5001 19.072C21.0254 18.3256 20.7679 15.0005 20.7679 15.0005C20.7679 15.0005 20.5103 18.3256 17.0356 19.072Z"
    fill="white"
  />
  <defs>
    <linearGradient
      id="paint0_linear_2691_43662"
      x1="0"
      y1="15"
      x2="30"
      y2="15"
      gradientUnits="userSpaceOnUse"
    >
      <stop stop-color="#E35981" />
      <stop offset="1" stop-color="#436CE5" />
    </linearGradient>
  </defs>
</svg>
