<svg width="30" height="30" viewBox="0 0 30 30" fill="none" xmlns="http://www.w3.org/2000/svg">
<circle cx="15" cy="15" r="14.5" fill="white" stroke="#DFE5EB"/>
<g clip-path="url(#clip0_7832_49764)">
<path d="M15.5798 15L20.1296 10.4502C20.2898 10.29 20.2898 10.0303 20.1296 9.87014C19.9694 9.70997 19.7097 9.70995 19.5496 9.87014L14.9997 14.42L10.45 9.87014C10.2898 9.70995 10.0301 9.70995 9.8699 9.87014C9.70973 10.0303 9.70971 10.29 9.8699 10.4502L14.4197 15L9.8699 19.5498C9.70971 19.71 9.70971 19.9697 9.8699 20.1299C9.94998 20.21 10.055 20.25 10.1599 20.25C10.2649 20.25 10.3699 20.21 10.45 20.1299L14.9997 15.5801L19.5495 20.1299C19.6296 20.21 19.7346 20.25 19.8396 20.25C19.9446 20.25 20.0495 20.21 20.1296 20.1299C20.2898 19.9697 20.2898 19.71 20.1296 19.5498L15.5798 15Z" fill="#1C1E21"/>
</g>
<defs>
<clipPath id="clip0_7832_49764">
<rect width="10.5" height="10.5" fill="white" transform="translate(9.74988 9.75)"/>
</clipPath>
</defs>
</svg>
