<svg width="22" height="22" viewBox="0 0 22 22" fill="none" xmlns="http://www.w3.org/2000/svg">
<path d="M11.2272 1.375H10.7734C8.87496 1.375 7.33594 2.91402 7.33594 4.8125V10.9312C7.33594 12.8297 8.87496 14.3687 10.7734 14.3687H11.2272C13.1257 14.3687 14.6647 12.8297 14.6647 10.9312V4.8125C14.6647 2.91402 13.1257 1.375 11.2272 1.375Z" fill="url(#paint0_linear_2735_15935)"/>
<path d="M17.4152 9.48242C17.3249 9.48237 17.2354 9.50012 17.152 9.53465C17.0686 9.56918 16.9928 9.61982 16.9289 9.68367C16.8651 9.74752 16.8144 9.82333 16.7799 9.90677C16.7453 9.9902 16.7276 10.0796 16.7277 10.1699C16.7277 11.689 16.1242 13.1458 15.0501 14.2199C13.9759 15.2941 12.5191 15.8975 11.0001 15.8975C9.481 15.8975 8.02417 15.2941 6.95004 14.2199C5.8759 13.1458 5.27246 11.689 5.27246 10.1699C5.27246 9.98759 5.20003 9.81272 5.0711 9.68379C4.94217 9.55485 4.7673 9.48242 4.58496 9.48242C4.40262 9.48242 4.22776 9.55485 4.09882 9.68379C3.96989 9.81272 3.89746 9.98759 3.89746 10.1699C3.89985 11.9338 4.55765 13.6338 5.74313 14.9399C6.92861 16.246 8.55717 17.0649 10.3126 17.2376V19.2497H8.02112C7.83878 19.2497 7.66392 19.3222 7.53498 19.4511C7.40605 19.58 7.33362 19.7549 7.33362 19.9372C7.33362 20.1196 7.40605 20.2944 7.53498 20.4234C7.66392 20.5523 7.83878 20.6247 8.02112 20.6247H13.979C14.1613 20.6247 14.3362 20.5523 14.4651 20.4234C14.5941 20.2944 14.6665 20.1196 14.6665 19.9372C14.6665 19.7549 14.5941 19.58 14.4651 19.4511C14.3362 19.3222 14.1613 19.2497 13.979 19.2497H11.6876V17.2376C13.4429 17.0649 15.0715 16.246 16.257 14.9399C17.4425 13.6338 18.1003 11.9338 18.1027 10.1699C18.1027 10.0796 18.085 9.9902 18.0504 9.90677C18.0159 9.82333 17.9653 9.74752 17.9014 9.68367C17.8376 9.61982 17.7617 9.56918 17.6783 9.53465C17.5949 9.50012 17.5055 9.48237 17.4152 9.48242Z" fill="url(#paint1_linear_2735_15935)"/>
<defs>
<linearGradient id="paint0_linear_2735_15935" x1="11.0003" y1="14.3687" x2="11.0003" y2="1.375" gradientUnits="userSpaceOnUse">
<stop stop-color="#3A3C3E"/>
<stop offset="1" stop-color="#6D808C"/>
</linearGradient>
<linearGradient id="paint1_linear_2735_15935" x1="11.0001" y1="20.6247" x2="11.0001" y2="9.48242" gradientUnits="userSpaceOnUse">
<stop stop-color="#3A3C3E"/>
<stop offset="1" stop-color="#6D808C"/>
</linearGradient>
</defs>
</svg>
