<svg width="20" height="20" viewBox="0 0 22 22" fill="none" xmlns="http://www.w3.org/2000/svg">
<g id="send 1">
<g id="Group">
<g id="Group_2">
<path id="Vector" fill-rule="evenodd" clip-rule="evenodd" d="M19.4793 9.20578C20.1779 9.55549 20.62 10.2705 20.6191 11.0519C20.6191 11.8334 20.177 12.5475 19.4785 12.8964L4.66425 20.2922C3.87069 20.6886 2.91307 20.5332 2.28531 19.9063C1.65755 19.2794 1.50126 18.3209 1.89674 17.5273L4.97425 11.349C5.07096 11.1556 5.07096 10.9285 4.97425 10.735L1.90019 4.56533C1.50384 3.77178 1.66013 2.81329 2.28876 2.18639C2.91653 1.55949 3.87502 1.40406 4.66857 1.80041L19.4793 9.20578ZM8.58627 11.7341H14.0876C14.4667 11.7341 14.775 11.4258 14.775 11.0467C14.775 10.6668 14.4667 10.3594 14.0876 10.3594H8.58627C8.20719 10.3594 7.89892 10.6668 7.89892 11.0467C7.89892 11.4258 8.20719 11.7341 8.58627 11.7341Z" fill="url(#paint0_linear_2907_13044)"/>
</g>
</g>
</g>
<defs>
<linearGradient id="paint0_linear_2907_13044" x1="1.68029" y1="11.0463" x2="20.6191" y2="11.0463" gradientUnits="userSpaceOnUse">
<stop stop-color="white"/>
<stop offset="1" stop-color="white"/>
</linearGradient>
</defs>
</svg>