<svg width="22" height="22" viewBox="0 0 22 22" fill="none" xmlns="http://www.w3.org/2000/svg">
<path fill-rule="evenodd" clip-rule="evenodd" d="M19.4796 9.20578C20.1781 9.55549 20.6202 10.2705 20.6194 11.0519C20.6194 11.8334 20.1773 12.5475 19.4787 12.8964L4.66449 20.2922C3.87094 20.6886 2.91332 20.5332 2.28555 19.9063C1.65779 19.2794 1.5015 18.3209 1.89698 17.5273L4.97449 11.349C5.0712 11.1556 5.0712 10.9285 4.97449 10.735L1.90043 4.56533C1.50409 3.77178 1.66038 2.81329 2.28901 2.18639C2.91677 1.55949 3.87526 1.40406 4.66882 1.80041L19.4796 9.20578ZM8.58651 11.7341H14.0879C14.4669 11.7341 14.7752 11.4258 14.7752 11.0467C14.7752 10.6668 14.4669 10.3594 14.0879 10.3594H8.58651C8.20744 10.3594 7.89917 10.6668 7.89917 11.0467C7.89917 11.4258 8.20744 11.7341 8.58651 11.7341Z" fill="url(#paint0_linear_2733_12935)"/>
<defs>
<linearGradient id="paint0_linear_2733_12935" x1="1.68054" y1="11.0463" x2="20.6194" y2="11.0463" gradientUnits="userSpaceOnUse">
<stop stop-color="#3A3C3E"/>
<stop offset="1" stop-color="#6D808C"/>
</linearGradient>
</defs>
</svg>
