<svg width="31" height="31" viewBox="0 0 31 31" fill="none" xmlns="http://www.w3.org/2000/svg">
<circle cx="15.5" cy="15.5" r="15" fill="#3B3D3F" stroke="#D0D7DB"/>
<path fill-rule="evenodd" clip-rule="evenodd" d="M23.0528 14.113C23.5926 14.3832 23.9343 14.9357 23.9336 15.5396C23.9336 16.1434 23.592 16.6952 23.0522 16.9648L11.6048 22.6798C10.9916 22.9861 10.2516 22.866 9.76654 22.3815C9.28145 21.8971 9.16068 21.1565 9.46628 20.5433L11.8444 15.7691C11.9191 15.6196 11.9191 15.4441 11.8444 15.2947L9.46895 10.5272C9.16268 9.91398 9.28345 9.17333 9.76921 8.6889C10.2543 8.20448 10.995 8.08438 11.6082 8.39065L23.0528 14.113ZM14.6355 16.0667H18.8865C19.1794 16.0667 19.4176 15.8285 19.4176 15.5355C19.4176 15.242 19.1794 15.0044 18.8865 15.0044H14.6355C14.3425 15.0044 14.1043 15.242 14.1043 15.5355C14.1043 15.8285 14.3425 16.0667 14.6355 16.0667Z" fill="url(#paint0_linear_3020_13087)"/>
<defs>
<linearGradient id="paint0_linear_3020_13087" x1="9.29903" y1="15.5352" x2="23.9336" y2="15.5352" gradientUnits="userSpaceOnUse">
<stop stop-color="white"/>
<stop offset="1" stop-color="white"/>
</linearGradient>
</defs>
</svg>
